<svg width="72" height="33" viewBox="0 0 72 33" fill="none" xmlns="http://www.w3.org/2000/svg">
<g clip-path="url(#clip0_3015_8394)">
<path fill-rule="evenodd" clip-rule="evenodd" d="M5.39062 0.864746H8.74159V32.2229H5.39062V0.864746Z" fill="#231F20"/>
<path fill-rule="evenodd" clip-rule="evenodd" d="M9.79688 0.864746H10.8329V32.2229H9.79688V0.864746Z" fill="#231F20"/>
<path fill-rule="evenodd" clip-rule="evenodd" d="M11.7383 0.864746H13.5965V32.2229H11.7383V0.864746Z" fill="#231F20"/>
<path fill-rule="evenodd" clip-rule="evenodd" d="M15.3867 0.864746H16.4228V32.2229H15.3867V0.864746Z" fill="#231F20"/>
<path fill-rule="evenodd" clip-rule="evenodd" d="M16.875 0.864746H17.6755V32.2229H16.875V0.864746Z" fill="#231F20"/>
<path fill-rule="evenodd" clip-rule="evenodd" d="M2.84375 0.864746H3.88221V32.2229H2.84375V0.864746Z" fill="#231F20"/>
<path fill-rule="evenodd" clip-rule="evenodd" d="M0.554688 0.864746H2.41286V32.2229H0.554688V0.864746Z" fill="#231F20"/>
<path fill-rule="evenodd" clip-rule="evenodd" d="M23.2188 0.864746H26.5697V32.2229H23.2188V0.864746Z" fill="#231F20"/>
<path fill-rule="evenodd" clip-rule="evenodd" d="M27.625 0.864746H28.6611V32.2229H27.625V0.864746Z" fill="#231F20"/>
<path fill-rule="evenodd" clip-rule="evenodd" d="M29.5703 0.864746H31.4285V32.2229H29.5703V0.864746Z" fill="#231F20"/>
<path fill-rule="evenodd" clip-rule="evenodd" d="M33.2188 0.864746H34.2548V32.2229H33.2188V0.864746Z" fill="#231F20"/>
<path fill-rule="evenodd" clip-rule="evenodd" d="M34.707 0.864746H35.5075V32.2229H34.707V0.864746Z" fill="#231F20"/>
<path fill-rule="evenodd" clip-rule="evenodd" d="M20.6758 0.864746H21.7142V32.2229H20.6758V0.864746Z" fill="#231F20"/>
<path fill-rule="evenodd" clip-rule="evenodd" d="M18.3867 0.864746H20.2449V32.2229H18.3867V0.864746Z" fill="#231F20"/>
<path fill-rule="evenodd" clip-rule="evenodd" d="M36.8203 0.864746H38.6785V32.2229H36.8203V0.864746Z" fill="#231F20"/>
<path fill-rule="evenodd" clip-rule="evenodd" d="M40.4688 0.864746H41.5072V32.2229H40.4688V0.864746Z" fill="#231F20"/>
<path fill-rule="evenodd" clip-rule="evenodd" d="M41.9609 0.864746H42.759V32.2229H41.9609V0.864746Z" fill="#231F20"/>
<path fill-rule="evenodd" clip-rule="evenodd" d="M45.7578 0.864746H46.7963V32.2229H45.7578V0.864746Z" fill="#231F20"/>
<path fill-rule="evenodd" clip-rule="evenodd" d="M43.4688 0.864746H45.3269V32.2229H43.4688V0.864746Z" fill="#231F20"/>
<path fill-rule="evenodd" clip-rule="evenodd" d="M48.1758 0.864746H49.2142V32.2229H48.1758V0.864746Z" fill="#231F20"/>
<path fill-rule="evenodd" clip-rule="evenodd" d="M49.668 0.864746H50.4684V32.2229H49.668V0.864746Z" fill="#231F20"/>
<path fill-rule="evenodd" clip-rule="evenodd" d="M53.4688 0.864746H54.5048V32.2229H53.4688V0.864746Z" fill="#231F20"/>
<path fill-rule="evenodd" clip-rule="evenodd" d="M51.1758 0.864746H53.034V32.2229H51.1758V0.864746Z" fill="#231F20"/>
<path fill-rule="evenodd" clip-rule="evenodd" d="M55.4102 0.864746H58.7587V32.2229H55.4102V0.864746Z" fill="#231F20"/>
<path fill-rule="evenodd" clip-rule="evenodd" d="M59.8125 0.864746H60.851V32.2229H59.8125V0.864746Z" fill="#231F20"/>
<path fill-rule="evenodd" clip-rule="evenodd" d="M61.7578 0.864746H63.616V32.2229H61.7578V0.864746Z" fill="#231F20"/>
<path fill-rule="evenodd" clip-rule="evenodd" d="M65.4062 0.864746H66.4447V32.2229H65.4062V0.864746Z" fill="#231F20"/>
<path fill-rule="evenodd" clip-rule="evenodd" d="M66.8945 0.864746H67.695V32.2229H66.8945V0.864746Z" fill="#231F20"/>
<path fill-rule="evenodd" clip-rule="evenodd" d="M69.0117 0.864746H70.8675V32.2229H69.0117V0.864746Z" fill="#231F20"/>
<path fill-rule="evenodd" clip-rule="evenodd" d="M4.34375 32.2952H68.5385V14.7207H4.34375V32.2952Z" fill="white"/>
<path d="M5.55078 31.6221V15.7183H11.5171C12.7335 15.7183 13.707 15.8793 14.4426 16.2014C15.1758 16.5235 15.7479 17.0187 16.1638 17.6894C16.582 18.3553 16.7888 19.0548 16.7888 19.788C16.7888 20.4635 16.6037 21.1053 16.2383 21.7038C15.8705 22.3048 15.3152 22.788 14.5724 23.1582C15.534 23.4394 16.2743 23.9226 16.7888 24.6029C17.308 25.2808 17.5652 26.0836 17.5652 27.0091C17.5652 27.7567 17.4065 28.449 17.0916 29.0885C16.7791 29.7303 16.3897 30.2207 15.9258 30.5692C15.4642 30.913 14.8825 31.1774 14.1878 31.3553C13.4883 31.5332 12.6325 31.6221 11.6181 31.6221H5.55078ZM7.66136 22.4034H11.0989C12.0315 22.4034 12.7022 22.3409 13.1061 22.2183C13.6421 22.0596 14.046 21.7928 14.3176 21.4226C14.5868 21.0524 14.7239 20.5909 14.7239 20.0308C14.7239 19.5019 14.5989 19.0356 14.3416 18.6365C14.0916 18.2327 13.7287 17.9538 13.2575 17.8072C12.7888 17.6582 11.9811 17.5836 10.8416 17.5836H7.66136V22.4034ZM7.66136 29.7543H11.6229C12.3032 29.7543 12.7815 29.7303 13.058 29.6774C13.5388 29.5933 13.9474 29.449 14.2719 29.2447C14.5989 29.0404 14.8633 28.7447 15.0748 28.3553C15.2864 27.9683 15.3897 27.5187 15.3897 27.0115C15.3897 26.4178 15.2383 25.901 14.9306 25.4611C14.6277 25.0211 14.2046 24.7135 13.6662 24.5356C13.1277 24.3577 12.3513 24.2687 11.3416 24.2687H7.66136V29.7543Z" fill="#231F20"/>
<path d="M19.4766 25.8573C19.4766 23.7299 20.0679 22.153 21.2578 21.1265C22.2458 20.2756 23.4549 19.8501 24.8804 19.8501C26.4621 19.8501 27.7578 20.3669 28.7626 21.4054C29.7674 22.4366 30.2698 23.8693 30.2698 25.6938C30.2698 27.1746 30.0487 28.3381 29.604 29.1842C29.1593 30.0328 28.5126 30.6914 27.6617 31.1626C26.8131 31.6313 25.8852 31.8645 24.8804 31.8645C23.2674 31.8645 21.9645 31.3501 20.9694 30.3164C19.9742 29.2852 19.4766 27.7972 19.4766 25.8573ZM21.4766 25.8597C21.4766 27.3333 21.7987 28.4366 22.4405 29.1674C23.0895 29.8982 23.8996 30.266 24.8804 30.266C25.8516 30.266 26.6569 29.8982 27.3059 29.1626C27.9501 28.427 28.2722 27.3044 28.2722 25.7972C28.2722 24.3765 27.9453 23.2996 27.2987 22.5713C26.6496 21.8381 25.8444 21.4703 24.8804 21.4703C23.8996 21.4703 23.0895 21.8333 22.4405 22.564C21.7987 23.2924 21.4766 24.391 21.4766 25.8597Z" fill="#231F20"/>
<path d="M32.5195 31.6221V15.7183H34.4739V31.6221H32.5195Z" fill="#231F20"/>
<path d="M45.3588 27.8886L47.378 28.1554C47.0631 29.3285 46.4766 30.2443 45.616 30.891C44.7578 31.54 43.6617 31.8645 42.3251 31.8645C40.6448 31.8645 39.3131 31.3477 38.3275 30.3092C37.3444 29.278 36.8516 27.8237 36.8516 25.9535C36.8516 24.0208 37.3468 22.5184 38.3444 21.4535C39.3395 20.3838 40.6304 19.8501 42.2194 19.8501C43.7554 19.8501 45.0102 20.3717 45.9838 21.4198C46.9573 22.4655 47.4453 23.939 47.4453 25.8381C47.4453 25.9535 47.4405 26.1265 47.4333 26.3573H38.8516C38.9237 27.6193 39.2794 28.5881 39.9237 29.2587C40.5631 29.9294 41.3684 30.266 42.3251 30.266C43.0415 30.266 43.652 30.0761 44.1544 29.6987C44.6617 29.3212 45.0607 28.7179 45.3588 27.8886ZM38.9621 24.7588H45.3804C45.2939 23.7876 45.0463 23.0616 44.6424 22.5785C44.0246 21.8261 43.2169 21.4487 42.229 21.4487C41.3347 21.4487 40.5823 21.7491 39.9718 22.3477C39.366 22.9487 39.027 23.7515 38.9621 24.7588Z" fill="#231F20"/>
<path d="M54.0916 29.8766L54.3585 31.6025C53.8104 31.7179 53.3176 31.7756 52.8897 31.7756C52.1806 31.7756 51.6349 31.665 51.2407 31.4391C50.8537 31.2131 50.5796 30.9198 50.4186 30.5545C50.2599 30.1891 50.183 29.4174 50.183 28.2444V21.6049H48.7383V20.0929H50.183V17.2444L52.1373 16.0713V20.0929H54.0916V21.6049H52.1373V28.3549C52.1373 28.915 52.171 29.2732 52.2407 29.4319C52.308 29.5929 52.4186 29.7179 52.5748 29.8141C52.7287 29.9054 52.9522 29.9559 53.2407 29.9559C53.4546 29.9559 53.7407 29.9295 54.0916 29.8766Z" fill="#231F20"/>
<path d="M55.2852 25.8573C55.2852 23.7299 55.8789 22.153 57.0664 21.1265C58.0544 20.2756 59.2659 19.8501 60.689 19.8501C62.2707 19.8501 63.5664 20.3669 64.5736 21.4054C65.576 22.4366 66.0808 23.8693 66.0808 25.6938C66.0808 27.1746 65.8573 28.3381 65.4126 29.1842C64.9678 30.0328 64.3212 30.6914 63.4703 31.1626C62.6217 31.6313 61.6938 31.8645 60.689 31.8645C59.076 31.8645 57.7731 31.3501 56.7779 30.3164C55.7828 29.2852 55.2852 27.7972 55.2852 25.8573ZM57.2852 25.8597C57.2852 27.3333 57.6073 28.4366 58.2515 29.1674C58.8981 29.8982 59.7106 30.266 60.689 30.266C61.6602 30.266 62.4678 29.8982 63.1145 29.1626C63.7587 28.427 64.0808 27.3044 64.0808 25.7972C64.0808 24.3765 63.7563 23.2996 63.1073 22.5713C62.4582 21.8381 61.6529 21.4703 60.689 21.4703C59.7106 21.4703 58.8981 21.8333 58.2515 22.564C57.6073 23.2924 57.2852 24.391 57.2852 25.8597Z" fill="#231F20"/>
</g>
<defs>
<clipPath id="clip0_3015_8394">
<rect width="71.3846" height="32" fill="white" transform="translate(0 0.443848)"/>
</clipPath>
</defs>
</svg>
