<svg width="52" height="41" viewBox="0 0 52 41" fill="none" xmlns="http://www.w3.org/2000/svg">
<path d="M9.52451 40.2231V37.5744C9.53995 37.3516 9.50774 37.1281 9.43002 36.9188C9.35231 36.7095 9.23088 36.5191 9.07383 36.3604C8.91677 36.2016 8.72769 36.0782 8.51919 35.9983C8.31069 35.9184 8.08755 35.8838 7.86463 35.8969C7.57285 35.8777 7.28129 35.9373 7.02037 36.0693C6.75946 36.2013 6.53877 36.4009 6.38134 36.6473C6.23783 36.4083 6.0325 36.2124 5.78699 36.0804C5.54147 35.9483 5.26487 35.8849 4.98634 35.8969C4.74354 35.8846 4.50176 35.936 4.28494 36.0459C4.06813 36.1559 3.88381 36.3206 3.75026 36.5237V36.0028H2.83203V40.2231H3.75909V37.9011C3.73937 37.7568 3.75178 37.6099 3.79542 37.4709C3.83907 37.3319 3.91288 37.2043 4.01157 37.0972C4.11026 36.9901 4.2314 36.9061 4.36633 36.8512C4.50126 36.7963 4.64665 36.7719 4.7921 36.7798C5.40131 36.7798 5.71033 37.1771 5.71033 37.8922V40.2408H6.63738V37.9011C6.61847 37.7569 6.63144 37.6103 6.67539 37.4717C6.71933 37.3331 6.79317 37.2058 6.8917 37.0989C6.99022 36.9919 7.11103 36.9079 7.24558 36.8528C7.38013 36.7976 7.52515 36.7727 7.67039 36.7798C8.29726 36.7798 8.59745 37.1771 8.59745 37.8922V40.2408L9.52451 40.2231ZM23.2406 36.0028H21.7308V34.7226H20.8037V36.0028H19.965V36.8416H20.8214V38.784C20.8214 39.764 21.201 40.3467 22.287 40.3467C22.6927 40.3481 23.0906 40.2349 23.4348 40.0201L23.1699 39.2343C22.9237 39.3811 22.6442 39.4632 22.3576 39.4727C21.9162 39.4727 21.7484 39.1901 21.7484 38.7663V36.8416H23.2494L23.2406 36.0028ZM31.072 35.8969C30.8481 35.8903 30.6266 35.9442 30.4308 36.053C30.235 36.1618 30.0722 36.3213 29.9595 36.5149V36.0028H29.0501V40.2231H29.9684V37.8569C29.9684 37.1594 30.2685 36.7709 30.8513 36.7709C31.0477 36.7683 31.2427 36.8043 31.4252 36.8769L31.7077 35.994C31.498 35.919 31.2771 35.8801 31.0543 35.8792L31.072 35.8969ZM19.2321 36.3383C18.7124 36.0293 18.1148 35.8761 17.5105 35.8969C16.4421 35.8969 15.7446 36.4089 15.7446 37.2477C15.7446 37.9364 16.2567 38.3602 17.2014 38.4926L17.6429 38.5544C18.1462 38.6251 18.3845 38.7575 18.3845 38.9959C18.3845 39.3226 18.049 39.508 17.4222 39.508C16.9179 39.5226 16.4235 39.3671 16.0183 39.0665L15.5769 39.7817C16.1118 40.1551 16.7524 40.347 17.4045 40.3291C18.6229 40.3291 19.3293 39.7552 19.3293 38.9517C19.3293 38.1483 18.773 37.8216 17.8548 37.6892L17.4133 37.6274C17.016 37.5744 16.6982 37.4949 16.6982 37.2124C16.6982 36.9299 16.9984 36.718 17.5016 36.718C17.9668 36.7234 18.4228 36.848 18.826 37.08L19.2321 36.3383ZM43.8257 35.8969C43.6018 35.8903 43.3803 35.9442 43.1845 36.053C42.9887 36.1618 42.8259 36.3213 42.7132 36.5149V36.0028H41.8038V40.2231H42.722V37.8569C42.722 37.1594 43.0222 36.7709 43.6049 36.7709C43.8013 36.7683 43.9963 36.8043 44.1788 36.8769L44.4614 35.994C44.2517 35.919 44.0307 35.8801 43.808 35.8792L43.8257 35.8969ZM31.9946 38.1041C31.9837 38.4007 32.0348 38.6963 32.1447 38.972C32.2546 39.2477 32.4208 39.4974 32.6327 39.7052C32.8446 39.9129 33.0976 40.0742 33.3754 40.1786C33.6532 40.283 33.9498 40.3282 34.2461 40.3114C34.7974 40.3395 35.3392 40.1599 35.7647 39.8082L35.3232 39.0665C35.0058 39.3086 34.6187 39.4417 34.2196 39.4462C33.8802 39.4187 33.5635 39.2645 33.3327 39.0142C33.1018 38.7639 32.9736 38.4358 32.9736 38.0953C32.9736 37.7548 33.1018 37.4268 33.3327 37.1764C33.5635 36.9261 33.8802 36.7719 34.2196 36.7445C34.6187 36.7489 35.0058 36.8821 35.3232 37.1241L35.7647 36.3825C35.3392 36.0307 34.7974 35.8512 34.2461 35.8792C33.9498 35.8624 33.6532 35.9077 33.3754 36.0121C33.0976 36.1164 32.8446 36.2777 32.6327 36.4854C32.4208 36.6932 32.2546 36.9429 32.1447 37.2186C32.0348 37.4943 31.9837 37.7899 31.9946 38.0865V38.1041ZM40.5942 38.1041V36.0028H39.676V36.5149C39.52 36.3143 39.3186 36.1536 39.0884 36.0461C38.8581 35.9387 38.6055 35.8875 38.3516 35.8969C37.7662 35.8969 37.2048 36.1294 36.7908 36.5434C36.3769 36.9573 36.1443 37.5187 36.1443 38.1041C36.1443 38.6895 36.3769 39.251 36.7908 39.6649C37.2048 40.0789 37.7662 40.3114 38.3516 40.3114C38.6055 40.3208 38.8581 40.2696 39.0884 40.1622C39.3186 40.0547 39.52 39.894 39.676 39.6934V40.2055H40.5942V38.1041ZM37.1773 38.1041C37.192 37.8557 37.2789 37.617 37.4275 37.4174C37.5761 37.2178 37.7799 37.066 38.0136 36.9807C38.2474 36.8954 38.501 36.8803 38.7433 36.9373C38.9855 36.9944 39.2058 37.121 39.3769 37.3016C39.5481 37.4822 39.6627 37.709 39.7067 37.9539C39.7506 38.1989 39.722 38.4513 39.6243 38.6802C39.5266 38.909 39.364 39.1043 39.1567 39.242C38.9494 39.3797 38.7064 39.4537 38.4576 39.455C38.2828 39.4572 38.1094 39.4232 37.9484 39.3552C37.7874 39.2871 37.6422 39.1865 37.5219 39.0596C37.4017 38.9328 37.309 38.7824 37.2497 38.6179C37.1904 38.4535 37.1657 38.2786 37.1773 38.1041ZM26.0968 35.8969C25.5114 35.9051 24.9532 36.1455 24.545 36.5652C24.1369 36.9849 23.9122 37.5496 23.9204 38.135C23.9286 38.7205 24.169 39.2786 24.5887 39.6868C25.0085 40.0949 25.5732 40.3196 26.1586 40.3114C26.7937 40.344 27.4183 40.1395 27.9112 39.7375L27.4697 39.0577C27.1211 39.3373 26.6893 39.4926 26.2425 39.4991C25.9389 39.5252 25.6372 39.4319 25.4014 39.239C25.1656 39.0461 25.0144 38.7688 24.9799 38.4661H28.1142C28.1142 38.3514 28.1142 38.2366 28.1142 38.113C28.1142 36.7886 27.2931 35.9057 26.11 35.9057L26.0968 35.8969ZM26.0968 36.718C26.2342 36.715 26.3708 36.7392 26.4989 36.7891C26.6269 36.839 26.7439 36.9136 26.8431 37.0087C26.9423 37.1038 27.0218 37.2176 27.0771 37.3434C27.1323 37.4692 27.1622 37.6047 27.1651 37.7421H24.9578C24.9738 37.4588 25.1001 37.1929 25.3097 37.0015C25.5193 36.8101 25.7954 36.7083 26.0791 36.718H26.0968ZM49.1011 38.113V34.3076H48.2182V36.5149C48.0622 36.3143 47.8608 36.1536 47.6305 36.0461C47.4003 35.9387 47.1477 35.8875 46.8938 35.8969C46.3084 35.8969 45.7469 36.1294 45.333 36.5434C44.9191 36.9573 44.6865 37.5187 44.6865 38.1041C44.6865 38.6895 44.9191 39.251 45.333 39.6649C45.7469 40.0789 46.3084 40.3114 46.8938 40.3114C47.1477 40.3208 47.4003 40.2696 47.6305 40.1622C47.8608 40.0547 48.0622 39.894 48.2182 39.6934V40.2055H49.1011V38.113ZM50.6329 39.6095C50.6903 39.6088 50.7473 39.6193 50.8007 39.6404C50.8514 39.6611 50.8978 39.691 50.9375 39.7287C50.9763 39.7668 51.0077 39.8117 51.0302 39.8611C51.0526 39.9127 51.0641 39.9683 51.0641 40.0245C51.0641 40.0807 51.0526 40.1363 51.0302 40.1878C51.0077 40.2373 50.9763 40.2822 50.9375 40.3203C50.8978 40.3579 50.8514 40.3879 50.8007 40.4085C50.7478 40.4319 50.6907 40.4439 50.6329 40.4439C50.5492 40.4432 50.4675 40.4188 50.3971 40.3735C50.3268 40.3282 50.2708 40.2638 50.2356 40.1878C50.2135 40.1362 50.2021 40.0806 50.2021 40.0245C50.2021 39.9683 50.2135 39.9128 50.2356 39.8611C50.2581 39.8117 50.2895 39.7668 50.3283 39.7287C50.3681 39.691 50.4145 39.6611 50.4652 39.6404C50.5227 39.6175 50.5843 39.607 50.6462 39.6095H50.6329ZM50.6329 40.3556C50.677 40.3558 50.7206 40.3468 50.7609 40.3291C50.7989 40.3121 50.8334 40.2882 50.8625 40.2584C50.9177 40.1982 50.9483 40.1194 50.9483 40.0377C50.9483 39.956 50.9177 39.8772 50.8625 39.817C50.8334 39.7872 50.799 39.7632 50.7609 39.7464C50.7206 39.7288 50.677 39.7197 50.6329 39.7199C50.5889 39.7201 50.5454 39.7291 50.5049 39.7464C50.4652 39.7626 50.4292 39.7866 50.399 39.817C50.3437 39.8772 50.3131 39.956 50.3131 40.0377C50.3131 40.1194 50.3437 40.1982 50.399 40.2584C50.4293 40.2887 50.4653 40.3127 50.5049 40.3291C50.5494 40.3483 50.5977 40.3573 50.6462 40.3556H50.6329ZM50.6594 39.8302C50.7006 39.8282 50.7412 39.8407 50.7742 39.8656C50.7877 39.8767 50.7984 39.891 50.8053 39.9071C50.8122 39.9232 50.8151 39.9408 50.8139 39.9583C50.8146 39.9729 50.8121 39.9876 50.8068 40.0012C50.8015 40.0149 50.7934 40.0273 50.783 40.0377C50.7574 40.061 50.7248 40.075 50.6903 40.0775L50.8183 40.2231H50.7168L50.5976 40.0775H50.5579V40.2231H50.474V39.8346L50.6594 39.8302ZM50.5623 39.9053V40.0112H50.6594C50.6767 40.0164 50.6951 40.0164 50.7124 40.0112C50.7155 40.0051 50.7171 39.9983 50.7171 39.9914C50.7171 39.9845 50.7155 39.9777 50.7124 39.9715C50.7155 39.9653 50.7171 39.9585 50.7171 39.9516C50.7171 39.9447 50.7155 39.9379 50.7124 39.9318C50.6951 39.9266 50.6767 39.9266 50.6594 39.9318L50.5623 39.9053ZM45.7063 38.113C45.7209 37.8646 45.8079 37.6258 45.9565 37.4262C46.1051 37.2266 46.3088 37.0748 46.5426 36.9895C46.7764 36.9042 47.03 36.8892 47.2722 36.9462C47.5144 37.0032 47.7347 37.1298 47.9059 37.3104C48.0771 37.4911 48.1917 37.7178 48.2356 37.9627C48.2796 38.2077 48.2509 38.4601 48.1532 38.689C48.0555 38.9179 47.893 39.1132 47.6857 39.2508C47.4784 39.3885 47.2353 39.4625 46.9865 39.4638C46.8117 39.466 46.6383 39.4321 46.4773 39.364C46.3163 39.296 46.1711 39.1954 46.0509 39.0685C45.9306 38.9416 45.8379 38.7912 45.7786 38.6268C45.7193 38.4623 45.6947 38.2874 45.7063 38.113ZM14.7028 38.113V36.0028H13.7846V36.5149C13.6286 36.3143 13.4272 36.1536 13.1969 36.0461C12.9667 35.9387 12.7141 35.8875 12.4602 35.8969C11.8748 35.8969 11.3134 36.1294 10.8994 36.5434C10.4855 36.9573 10.2529 37.5187 10.2529 38.1041C10.2529 38.6895 10.4855 39.251 10.8994 39.6649C11.3134 40.0789 11.8748 40.3114 12.4602 40.3114C12.7141 40.3208 12.9667 40.2696 13.1969 40.1622C13.4272 40.0547 13.6286 39.894 13.7846 39.6934V40.2055H14.7028V38.113ZM11.2859 38.113C11.3006 37.8646 11.3875 37.6258 11.5361 37.4262C11.6847 37.2266 11.8885 37.0748 12.1222 36.9895C12.356 36.9042 12.6096 36.8892 12.8519 36.9462C13.0941 37.0032 13.3144 37.1298 13.4855 37.3104C13.6567 37.4911 13.7713 37.7178 13.8153 37.9627C13.8592 38.2077 13.8306 38.4601 13.7329 38.689C13.6351 38.9179 13.4726 39.1132 13.2653 39.2508C13.058 39.3885 12.815 39.4625 12.5661 39.4638C12.3906 39.4673 12.2163 39.4342 12.0542 39.3667C11.8921 39.2992 11.7459 39.1988 11.6247 39.0718C11.5035 38.9448 11.41 38.7939 11.3501 38.6289C11.2903 38.4638 11.2654 38.2881 11.2771 38.113H11.2859Z" fill="#231F20"/>
<path d="M32.8317 3.84277H18.9258V28.8336H32.8317V3.84277Z" fill="#FF5F00"/>
<path d="M19.8104 16.3404C19.8079 13.9333 20.3531 11.5571 21.4047 9.39187C22.4564 7.22661 23.9869 5.32903 25.8805 3.84282C23.5359 2.00027 20.7203 0.854505 17.7554 0.536463C14.7906 0.21842 11.796 0.740935 9.11401 2.04429C6.43203 3.34764 4.17084 5.37925 2.58887 7.90692C1.0069 10.4346 0.167969 13.3563 0.167969 16.3382C0.167969 19.3201 1.0069 22.2419 2.58887 24.7696C4.17084 27.2972 6.43203 29.3288 9.11401 30.6322C11.796 31.9355 14.7906 32.4581 17.7554 32.14C20.7203 31.822 23.5359 30.6762 25.8805 28.8337C23.9875 27.3479 22.4573 25.451 21.4057 23.2866C20.3541 21.1221 19.8085 18.7468 19.8104 16.3404Z" fill="#EB001B"/>
<path d="M51.5937 16.3403C51.5937 19.3225 50.7545 22.2444 49.1723 24.7721C47.59 27.2999 45.3285 29.3315 42.6462 30.6346C39.9639 31.9378 36.969 32.46 34.004 32.1415C31.0389 31.823 28.2233 30.6767 25.8789 28.8335C27.7711 27.3465 29.3009 25.4491 30.3528 23.2845C31.4047 21.1199 31.9513 18.7447 31.9513 16.3381C31.9513 13.9315 31.4047 11.5563 30.3528 9.39173C29.3009 7.22717 27.7711 5.32977 25.8789 3.8427C28.2233 1.99958 31.0389 0.853257 34.004 0.534758C36.969 0.216258 39.9639 0.738437 42.6462 2.0416C45.3285 3.34477 47.59 5.37635 49.1723 7.9041C50.7545 10.4319 51.5937 13.3538 51.5937 16.3359V16.3403Z" fill="#F79E1B"/>
<path d="M50.0757 26.1849V25.6728H50.2831V25.5669H49.7578V25.6728H49.983V26.1849H50.0757ZM51.0954 26.1849V25.5669H50.9365L50.7511 26.0084L50.5657 25.5669H50.4244V26.1849H50.5392V25.7214L50.7114 26.1231H50.8306L51.0027 25.7214V26.1893L51.0954 26.1849Z" fill="#F79E1B"/>
</svg>
