<svg width="93" height="33" viewBox="0 0 93 33" fill="none" xmlns="http://www.w3.org/2000/svg">
<path fill-rule="evenodd" clip-rule="evenodd" d="M43.6243 7.94257C42.5568 7.94291 41.5331 8.36712 40.7782 9.12199C40.0231 9.87716 39.5988 10.9014 39.5988 11.9694V20.8774C39.9683 20.2917 40.6211 19.9026 41.3649 19.9026H49.0225C49.0224 19.9026 49.0226 19.9026 49.0225 19.9026C50.0905 19.9023 51.115 19.4779 51.8701 18.7226C52.6253 17.9673 53.0496 16.9429 53.0496 15.8748V11.9694C53.0497 10.9049 52.6276 9.8836 51.8757 9.13013C51.124 8.3768 50.1042 7.95243 49.04 7.95013C49.0398 7.95013 49.0402 7.95013 49.04 7.95013L43.6256 7.94257C43.6252 7.94257 43.6247 7.94257 43.6243 7.94257ZM39.5988 23.1007V30.3215C39.5988 31.4739 38.6647 32.4081 37.5123 32.4081C36.3599 32.4081 35.4258 31.4739 35.4258 30.3215V11.9694C35.4258 9.79462 36.2897 7.70897 37.8275 6.1712C39.3652 4.63344 41.4509 3.76953 43.6256 3.76953H43.6285L49.0478 3.77709C51.2176 3.78146 53.2971 4.64657 54.8297 6.18254C56.3623 7.71844 57.2229 9.79963 57.2226 11.9694C57.2226 11.9692 57.2226 11.9695 57.2226 11.9694V15.8748C57.2226 18.0496 56.3588 20.1353 54.8211 21.6732C53.2835 23.2111 51.1979 24.0753 49.0231 24.0756H41.3649C40.6211 24.0756 39.9683 23.6865 39.5988 23.1007Z" fill="#939598"/>
<path fill-rule="evenodd" clip-rule="evenodd" d="M54.5664 5.85508C54.5664 4.70272 55.5006 3.76855 56.6529 3.76855H59.0034C60.2223 3.76855 61.3912 4.25274 62.253 5.1146C63.1149 5.97647 63.5991 7.1454 63.5991 8.36426V22.0722C63.5991 23.2245 62.6649 24.1587 61.5126 24.1587C60.3602 24.1587 59.4261 23.2245 59.4261 22.0722V8.36426C59.4261 8.25216 59.3815 8.14465 59.3023 8.06539C59.223 7.98613 59.1155 7.9416 59.0034 7.9416H56.6529C55.5006 7.9416 54.5664 7.00743 54.5664 5.85508Z" fill="#939598"/>
<path d="M61.0062 3.73157L59.9405 2.66498C59.8776 2.60216 59.8278 2.52757 59.7937 2.44546C59.7597 2.36336 59.7422 2.27535 59.7422 2.18648C59.7422 2.0976 59.7597 2.0096 59.7937 1.92749C59.8278 1.84539 59.8776 1.77079 59.9405 1.70798L61.0062 0.642329C61.1333 0.515238 61.3058 0.443848 61.4856 0.443848C61.6654 0.443848 61.8379 0.515238 61.965 0.642329L63.0298 1.70798C63.0926 1.77079 63.1425 1.84539 63.1765 1.92749C63.2106 2.0096 63.2281 2.0976 63.2281 2.18648C63.2281 2.27535 63.2106 2.36336 63.1765 2.44546C63.1425 2.52757 63.0926 2.60216 63.0298 2.66498L61.9603 3.73157C61.8974 3.79447 61.8228 3.84437 61.7406 3.87841C61.6584 3.91245 61.5703 3.92997 61.4813 3.92997C61.3924 3.92997 61.3043 3.91245 61.2221 3.87841C61.14 3.84437 61.0653 3.79447 61.0024 3.73157" fill="#32BCAD"/>
<path fill-rule="evenodd" clip-rule="evenodd" d="M70.0769 8.64152C69.6202 8.18528 69.001 7.92912 68.3555 7.92939H66.024C64.8717 7.92939 63.9375 6.99522 63.9375 5.84287C63.9375 4.69052 64.8717 3.75635 66.024 3.75635H68.3546C70.1066 3.75585 71.787 4.45117 73.0263 5.68944L78.2823 10.9454L83.5178 5.71074C84.1314 5.09727 84.8599 4.61073 85.6616 4.27895C86.463 3.94732 87.3218 3.7768 88.1891 3.77713C88.1889 3.77713 88.1893 3.77713 88.1891 3.77713H90.0842C91.2366 3.77713 92.1707 4.7113 92.1707 5.86365C92.1707 7.01601 91.2366 7.95017 90.0842 7.95017L88.1879 7.95017C87.8686 7.95 87.5524 8.01275 87.2573 8.13486C86.9623 8.25696 86.6942 8.43602 86.4684 8.66179M86.4684 8.66179L81.0372 14.092C81.037 14.0922 81.0367 14.0925 81.0365 14.0927C81.0364 14.0928 81.0366 14.0926 81.0365 14.0927C80.6751 14.4543 80.2457 14.7415 79.7734 14.9372C79.3007 15.1332 78.794 15.2341 78.2823 15.2341C77.7705 15.2341 77.2638 15.1332 76.7911 14.9372C76.3188 14.7414 75.8896 14.4545 75.5282 14.0929C75.5281 14.0928 75.5283 14.0929 75.5282 14.0929C75.528 14.0926 75.5275 14.0922 75.5273 14.092L70.0769 8.64152" fill="#939598"/>
<path fill-rule="evenodd" clip-rule="evenodd" d="M78.2823 16.8499L83.5182 22.0859C84.7573 23.3241 86.4374 24.0195 88.1891 24.0191C88.1889 24.0191 88.1893 24.0191 88.1891 24.0191H90.0842C91.2366 24.0191 92.1707 23.085 92.1707 21.9326C92.1707 20.7803 91.2366 19.8461 90.0842 19.8461H88.1891C87.5441 19.8463 86.9249 19.5904 86.4685 19.1346C86.4683 19.1344 86.4681 19.1343 86.468 19.1341L81.0363 13.7024L81.0357 13.7018C80.3052 12.972 79.3149 12.562 78.2823 12.562C77.2497 12.562 76.2593 12.972 75.5289 13.7018L70.077 19.1537C70.0769 19.1538 70.0771 19.1536 70.077 19.1537C69.6202 19.6098 69.0008 19.8661 68.3553 19.8659H66.024C64.8717 19.8659 63.9375 20.8001 63.9375 21.9524C63.9375 23.1048 64.8717 24.039 66.024 24.039H68.354C68.3542 24.039 68.3544 24.039 68.3546 24.039C70.1065 24.0394 71.7868 23.3441 73.0262 22.106L78.2823 16.8499Z" fill="#939598"/>
<path d="M23.6164 25.4349C23.0414 25.4369 22.4716 25.3251 21.9401 25.1057C21.4085 24.8863 20.9257 24.5637 20.5196 24.1567L16.0463 19.6806C15.8881 19.5293 15.6776 19.4448 15.4587 19.4448C15.2398 19.4448 15.0293 19.5293 14.8711 19.6806L10.3827 24.1689C9.97681 24.5766 9.49414 24.8998 8.96261 25.1198C8.43107 25.3399 7.8612 25.4524 7.28591 25.4509H6.41016L12.0785 31.1193C12.9286 31.9676 14.0806 32.444 15.2816 32.444C16.4826 32.444 17.6345 31.9676 18.4847 31.1193L24.1643 25.4386L23.6164 25.4349Z" fill="#32BCAD"/>
<path d="M7.28686 9.61621C7.86215 9.61467 8.43204 9.72718 8.96358 9.94722C9.49513 10.1673 9.97779 10.4905 10.3837 10.8982L14.872 15.3875C15.028 15.5431 15.2394 15.6304 15.4597 15.6304C15.6799 15.6304 15.8913 15.5431 16.0473 15.3875L20.5196 10.9152C20.9251 10.507 21.4077 10.1834 21.9393 9.96314C22.4709 9.7429 23.041 9.63044 23.6164 9.63227H24.1549L18.4752 3.9526C18.0546 3.53186 17.5553 3.19811 17.0057 2.9704C16.4561 2.74269 15.867 2.62549 15.2721 2.62549C14.6772 2.62549 14.0882 2.74269 13.5386 2.9704C12.989 3.19811 12.4896 3.53186 12.069 3.9526L6.41016 9.61621H7.28686Z" fill="#32BCAD"/>
<path d="M28.8545 14.3316L25.4223 10.8994C25.3449 10.931 25.2622 10.9477 25.1786 10.9485H23.6179C22.8058 10.9506 22.0273 11.2731 21.4516 11.846L16.9793 16.3155C16.5766 16.7175 16.0307 16.9433 15.4616 16.9433C14.8925 16.9433 14.3467 16.7175 13.9439 16.3155L9.45461 11.829C8.87915 11.2557 8.10063 10.9329 7.28836 10.9306H5.37246C5.2935 10.9288 5.21548 10.9131 5.14195 10.8843L1.68805 14.3316C0.839716 15.1817 0.363281 16.3337 0.363281 17.5347C0.363281 18.7356 0.839716 19.8876 1.68805 20.7377L5.13439 24.1841C5.20776 24.1547 5.28589 24.139 5.36491 24.1378H7.28836C8.10061 24.1354 8.87909 23.8125 9.45461 23.2394L13.943 18.751C14.7545 17.9404 16.1688 17.9404 16.9793 18.751L21.4516 23.2224C22.0273 23.7953 22.8058 24.1178 23.6179 24.1198H25.1786C25.2622 24.1204 25.345 24.1371 25.4223 24.169L28.8545 20.7368C29.2752 20.3162 29.609 19.8169 29.8367 19.2673C30.0644 18.7177 30.1816 18.1286 30.1816 17.5337C30.1816 16.9388 30.0644 16.3497 29.8367 15.8001C29.609 15.2506 29.2752 14.7512 28.8545 14.3306" fill="#32BCAD"/>
<path d="M42.1733 28.7621C41.8896 28.7746 41.6081 28.8173 41.3335 28.8897V30.0082C41.5435 30.0819 41.7646 30.1189 41.9872 30.1178C42.5484 30.1178 42.8139 29.9289 42.8139 29.4348C42.8139 28.97 42.5966 28.7621 42.1733 28.7621ZM41.1445 30.8405V28.627H41.2985L41.3146 28.7215C41.6007 28.6454 41.8938 28.5983 42.1894 28.5807C42.3942 28.5664 42.5975 28.6253 42.7628 28.747C42.9518 28.9038 43.016 29.157 43.016 29.4329C43.016 29.7087 42.9216 29.994 42.657 30.1443C42.4552 30.245 42.2316 30.2946 42.0061 30.2888C41.7781 30.2874 41.5515 30.2527 41.3335 30.1858V30.8367L41.1445 30.8405Z" fill="#939598"/>
<path d="M44.4229 28.7554C43.8627 28.7554 43.6123 28.9311 43.6123 29.4252C43.6123 29.9023 43.8589 30.1177 44.4229 30.1177C44.9869 30.1177 45.2306 29.9439 45.2306 29.4507C45.2306 28.9736 44.9841 28.7554 44.4229 28.7554ZM45.1447 30.1177C44.9557 30.2518 44.7082 30.2906 44.4229 30.2906C44.1376 30.2906 43.8816 30.249 43.6992 30.1177C43.4942 29.9732 43.4102 29.7398 43.4102 29.4384C43.4102 29.1371 43.4942 28.9028 43.6992 28.7554C43.8816 28.6241 44.1319 28.5825 44.4229 28.5825C44.7139 28.5825 44.9586 28.6241 45.1447 28.7554C45.3525 28.9028 45.4328 29.1427 45.4328 29.4347C45.4328 29.7266 45.3497 29.9732 45.1447 30.1177Z" fill="#939598"/>
<path d="M47.7988 30.2453L47.1734 28.9028H47.1611L46.5451 30.2453H46.3722L45.7109 28.627H45.9188L46.4733 29.9855H46.4866L47.0893 28.627H47.2622L47.88 29.9855H47.8932L48.4346 28.627H48.6396L47.9726 30.2453H47.7988Z" fill="#939598"/>
<path d="M49.8465 28.7517C49.3269 28.7517 49.1512 28.9832 49.1191 29.3186H50.5739C50.5579 28.9501 50.3689 28.7517 49.8465 28.7517ZM49.8399 30.2907C49.5291 30.2907 49.3269 30.2453 49.1663 30.1112C48.9774 29.9478 48.9141 29.7106 48.9141 29.4385C48.9141 29.1665 49 28.9029 49.2154 28.7461C49.4038 28.6276 49.6243 28.5705 49.8465 28.5826C50.073 28.5689 50.2985 28.6236 50.4936 28.7395C50.727 28.8963 50.7723 29.1721 50.7723 29.4858H49.1143C49.121 29.8193 49.2296 30.114 49.8578 30.114C50.1387 30.1066 50.4185 30.075 50.6939 30.0196V30.1896C50.4139 30.2472 50.1294 30.2804 49.8437 30.2888" fill="#939598"/>
<path d="M51.3125 30.2452V28.6269H51.4655L51.4816 28.7213C51.8245 28.6344 51.9851 28.5806 52.2865 28.5806H52.3092V28.7601H52.2638C52.0107 28.7601 51.8567 28.795 51.5014 28.8876V30.2433L51.3125 30.2452Z" fill="#939598"/>
<path d="M53.409 28.7517C52.8904 28.7517 52.7137 28.9832 52.6816 29.3186H54.1364C54.1204 28.9501 53.9314 28.7517 53.409 28.7517ZM53.4024 30.2907C53.0916 30.2907 52.8904 30.2453 52.7298 30.1112C52.5408 29.9478 52.4766 29.7106 52.4766 29.4385C52.4766 29.1665 52.5635 28.9029 52.7779 28.7461C52.9664 28.6278 53.1868 28.5707 53.409 28.5826C53.6355 28.5689 53.861 28.6236 54.0561 28.7395C54.2904 28.8963 54.3396 29.1721 54.3396 29.4858H52.675C52.6816 29.8193 52.7902 30.114 53.4185 30.114C53.6997 30.1067 53.9797 30.0751 54.2555 30.0196V30.1896C53.9755 30.2471 53.691 30.2803 53.4052 30.2888" fill="#939598"/>
<path d="M56.4052 28.864C56.1951 28.7907 55.974 28.754 55.7515 28.7554C55.1903 28.7554 54.9248 28.9443 54.9248 29.4384C54.9248 29.9061 55.1431 30.1111 55.5653 30.1111C55.8489 30.0979 56.1303 30.0558 56.4052 29.9854V28.864ZM56.4411 30.2452L56.4241 30.1508C56.1381 30.2276 55.845 30.2751 55.5493 30.2925C55.3442 30.3079 55.1405 30.2485 54.9758 30.1252C54.7869 29.9684 54.7227 29.7152 54.7227 29.4403C54.7227 29.1512 54.8171 28.8792 55.0816 28.7318C55.2838 28.6287 55.5086 28.578 55.7354 28.5844C55.9623 28.5875 56.1877 28.6219 56.4052 28.6864V27.9448H56.5942V30.2452H56.4411Z" fill="#939598"/>
<path d="M59.3686 28.762C59.0849 28.7744 58.8034 28.8172 58.5288 28.8895V30.0053C58.7384 30.081 58.9597 30.1191 59.1825 30.1177C59.7437 30.1177 60.0092 29.9287 60.0092 29.4347C60.0092 28.9698 59.7919 28.762 59.3686 28.762ZM59.8523 30.146C59.6508 30.2467 59.4276 30.2963 59.2024 30.2906C58.9559 30.289 58.7112 30.2479 58.4778 30.1687L58.4683 30.2452H58.3398V27.9448H58.5288V28.7167C58.8092 28.6449 59.0958 28.6 59.3847 28.5825C59.5895 28.5682 59.7928 28.6271 59.9582 28.7488C60.1471 28.9056 60.2113 29.1588 60.2113 29.4347C60.2113 29.7105 60.1169 29.9958 59.8523 30.146Z" fill="#939598"/>
<path d="M60.4605 30.864V30.6882C60.555 30.6977 60.64 30.7043 60.7004 30.7043C60.9347 30.7043 61.0783 30.6363 61.2068 30.3708L61.2682 30.2423L60.418 28.624H60.6371L61.3617 30.0213H61.374L62.0627 28.624H62.2781L61.3674 30.4417C61.2011 30.7714 61.0216 30.88 60.691 30.88C60.613 30.8796 60.535 30.8743 60.4576 30.864" fill="#939598"/>
<path d="M64.89 29.3224H64.2627V29.8892H64.89C65.3227 29.8892 65.4861 29.841 65.4861 29.6058C65.4861 29.3526 65.2612 29.3224 64.8862 29.3224M64.7728 28.4079H64.2608V28.9842H64.7766C65.2027 28.9842 65.3727 28.9332 65.3727 28.6932C65.3727 28.4362 65.1573 28.4098 64.7728 28.4098M65.7478 30.0989C65.5163 30.2463 65.2376 30.252 64.7284 30.252H63.7695V28.0508H64.7057C65.145 28.0508 65.4143 28.0564 65.6382 28.1915C65.7126 28.2359 65.7731 28.3002 65.8128 28.3772C65.8526 28.4542 65.87 28.5407 65.863 28.6271C65.863 28.8576 65.7686 29.0116 65.5163 29.1145V29.1268C65.7997 29.1911 65.9811 29.3356 65.9811 29.6464C65.9882 29.7352 65.9701 29.8241 65.9288 29.903C65.8875 29.9819 65.8248 30.0476 65.7478 30.0923" fill="#939598"/>
<path d="M67.899 29.566C67.7101 29.55 67.5211 29.5405 67.3161 29.5405C66.9864 29.5405 66.8702 29.6076 66.8702 29.7588C66.8702 29.9099 66.9647 29.9761 67.2198 29.9761C67.4489 29.9685 67.6766 29.9369 67.899 29.8816V29.566ZM67.9935 30.2453L67.9812 30.1508C67.6947 30.2316 67.3999 30.2791 67.1026 30.2925C66.9308 30.3041 66.7597 30.2625 66.6123 30.1735C66.549 30.1203 66.4998 30.0523 66.4692 29.9755C66.4386 29.8987 66.4275 29.8155 66.4368 29.7334C66.4462 29.6512 66.4757 29.5727 66.5228 29.5048C66.5699 29.4368 66.6331 29.3816 66.7068 29.344C66.8768 29.2637 67.1045 29.2571 67.3133 29.2571C67.4824 29.2571 67.7101 29.2666 67.899 29.2798V29.2505C67.899 28.9973 67.7327 28.9142 67.2774 28.9142C67.1017 28.9142 66.8863 28.9236 66.6813 28.9425V28.6157C66.9089 28.5968 67.1659 28.5845 67.3775 28.5845C67.6609 28.5845 67.951 28.6062 68.1333 28.7347C68.3156 28.8632 68.3544 29.0493 68.3544 29.2892V30.2472L67.9935 30.2453Z" fill="#939598"/>
<path d="M70.462 30.2453V29.3526C70.462 29.0578 70.3118 28.952 70.0426 28.952C69.8191 28.9619 69.5973 28.9961 69.3813 29.054V30.2463H68.9297V28.627H69.2981L69.3142 28.73C69.5959 28.6471 69.8863 28.5976 70.1796 28.5826C70.3787 28.5667 70.5766 28.626 70.7341 28.7489C70.8616 28.8641 70.9098 29.0247 70.9098 29.2553V30.2453H70.462Z" fill="#939598"/>
<path d="M72.1869 30.2906C71.9781 30.2906 71.7504 30.2613 71.5841 30.1205C71.3858 29.9599 71.3281 29.7077 71.3281 29.4347C71.3281 29.1786 71.4113 28.899 71.6578 28.7422C71.86 28.6109 72.1094 28.5825 72.3692 28.5825C72.5582 28.5825 72.7377 28.5948 72.936 28.6137V28.9604C72.7726 28.9443 72.577 28.9321 72.4202 28.9321C71.9904 28.9321 71.7882 29.0662 71.7882 29.4384C71.7882 29.787 71.9394 29.9382 72.2917 29.9382C72.5202 29.9307 72.7475 29.9029 72.971 29.8551V30.1876C72.7124 30.2478 72.4485 30.2823 72.1831 30.2906" fill="#939598"/>
<path d="M74.3102 28.9217C73.8803 28.9217 73.6914 29.0568 73.6914 29.4252C73.6914 29.7937 73.8803 29.9505 74.3102 29.9505C74.74 29.9505 74.9223 29.8192 74.9223 29.4507C74.9223 29.0823 74.74 28.9217 74.3102 28.9217ZM75.0858 30.1205C74.8874 30.2547 74.6276 30.2906 74.3102 30.2906C73.9927 30.2906 73.7273 30.2518 73.5317 30.1205C73.3069 29.9732 73.2266 29.7294 73.2266 29.4384C73.2266 29.1475 73.3069 28.899 73.5317 28.7516C73.7273 28.6203 73.9861 28.5825 74.3102 28.5825C74.6342 28.5825 74.8874 28.6203 75.0858 28.7516C75.3097 28.899 75.3871 29.1465 75.3871 29.4347C75.3871 29.7228 75.3068 29.9732 75.0858 30.1205Z" fill="#939598"/>
<path d="M77.998 30.2907C77.7259 30.2907 77.4312 30.2453 77.2101 30.063C76.9475 29.8447 76.8672 29.5084 76.8672 29.1466C76.8672 28.8226 76.9702 28.4381 77.3121 28.2142C77.5786 28.0413 77.9083 28.0054 78.2418 28.0054C78.4855 28.0054 78.7358 28.0214 79.0079 28.0441V28.4381C78.7746 28.4192 78.4855 28.4031 78.2616 28.4031C77.6362 28.4031 77.3707 28.6402 77.3707 29.1466C77.3707 29.653 77.6173 29.8929 78.0783 29.8929C78.4078 29.8815 78.7353 29.8376 79.0561 29.7616V30.1527C78.7087 30.233 78.3544 30.2792 77.998 30.2907Z" fill="#939598"/>
<path d="M80.3848 28.8706C80.0069 28.8706 79.8652 29.0057 79.8359 29.2485H80.9261C80.9129 28.9858 80.7589 28.8706 80.3848 28.8706ZM80.3168 30.2876C80.0513 30.2876 79.8104 30.2555 79.6309 30.1082C79.4514 29.9608 79.3711 29.7076 79.3711 29.4317C79.3711 29.1852 79.4514 28.9093 79.6762 28.7487C79.8746 28.6079 80.1278 28.5796 80.3848 28.5796C80.6153 28.5796 80.8874 28.6051 81.0858 28.743C81.3456 28.9254 81.3692 29.2078 81.3692 29.5404H79.8331C79.8425 29.7879 79.9738 29.9475 80.4292 29.9475C80.7184 29.9412 81.0067 29.9134 81.2917 29.8644V30.1818C80.97 30.2429 80.644 30.2783 80.3168 30.2876Z" fill="#939598"/>
<path d="M83.38 30.2453V29.3526C83.38 29.0578 83.2298 28.952 82.9605 28.952C82.7371 28.9619 82.5153 28.9961 82.2992 29.054V30.2463H81.8477V28.627H82.2161L82.2322 28.73C82.5138 28.6471 82.8043 28.5976 83.0975 28.5826C83.2967 28.5667 83.4945 28.626 83.6521 28.7489C83.7796 28.8641 83.8278 29.0247 83.8278 29.2553V30.2453H83.38Z" fill="#939598"/>
<path d="M85.1157 30.2907C84.8975 30.2907 84.6991 30.2293 84.5904 30.0592C84.5014 29.9122 84.4598 29.7413 84.4714 29.5699V28.9634H84.1445V28.627H84.4714L84.5196 28.1367H84.9183V28.627H85.5559V28.9634H84.9183V29.4829C84.9122 29.5875 84.9273 29.6923 84.9627 29.7909C85.0108 29.8996 85.1166 29.9411 85.2584 29.9411C85.3667 29.9392 85.4748 29.9284 85.5815 29.909V30.2331C85.4276 30.2664 85.2711 30.2856 85.1138 30.2907" fill="#939598"/>
<path d="M86 30.2451V28.6268H86.3684L86.3845 28.7298C86.643 28.642 86.9128 28.5924 87.1856 28.5824C87.2048 28.5813 87.2241 28.5813 87.2433 28.5824V28.9744C87.1922 28.9744 87.1308 28.9744 87.0864 28.9744C86.8722 28.9753 86.6588 29.0033 86.4516 29.0576V30.2527L86 30.2451Z" fill="#939598"/>
<path d="M88.8859 29.566C88.6969 29.55 88.508 29.5405 88.302 29.5405C87.9723 29.5405 87.8571 29.6076 87.8571 29.7588C87.8571 29.9099 87.9515 29.9761 88.2057 29.9761C88.4351 29.9685 88.6631 29.9369 88.8859 29.8816V29.566ZM88.9803 30.2453L88.9671 30.1508C88.6806 30.2316 88.3858 30.2791 88.0885 30.2925C87.9167 30.3041 87.7456 30.2625 87.5982 30.1735C87.5387 30.1279 87.4912 30.0684 87.4599 30.0002C87.4286 29.9321 87.4145 29.8573 87.4187 29.7824C87.4143 29.6902 87.4381 29.599 87.4869 29.5207C87.5357 29.4424 87.6071 29.3807 87.6917 29.344C87.8618 29.2637 88.0885 29.2571 88.2973 29.2571C88.4673 29.2571 88.695 29.2666 88.884 29.2798V29.2505C88.884 28.9973 88.7168 28.9142 88.2623 28.9142C88.0857 28.9142 87.8712 28.9236 87.6662 28.9425V28.6157C87.8939 28.5968 88.1499 28.5845 88.3615 28.5845C88.645 28.5845 88.935 28.6062 89.1173 28.7347C89.2996 28.8632 89.3384 29.0493 89.3384 29.2892V30.2472L88.9803 30.2453Z" fill="#939598"/>
<path d="M89.918 27.9448H90.3705V30.2452H89.918V27.9448Z" fill="#939598"/>
</svg>
