<svg width="75" height="25" viewBox="0 0 75 25" fill="none" xmlns="http://www.w3.org/2000/svg">
<path d="M32.4529 24.0438H26.4165L30.1892 0.858143H36.2262L32.4529 24.0438ZM21.3382 0.858143L15.5834 16.8054L14.9024 13.3714L14.903 13.3726L12.8718 2.94575C12.8718 2.94575 12.6262 0.858143 10.0084 0.858143H0.494449L0.382812 1.25073C0.382812 1.25073 3.29219 1.85605 6.6971 3.90086L11.9415 24.0444H18.231L27.8349 0.858143H21.3382ZM68.8179 24.0438H74.3606L69.528 0.857523H64.6755C62.4348 0.857523 61.889 2.58541 61.889 2.58541L52.8861 24.0438H59.1787L60.4371 20.5998H68.1108L68.8179 24.0438ZM62.1755 15.8422L65.3472 7.16561L67.1315 15.8422H62.1755ZM53.3581 6.43377L54.2195 1.45478C54.2195 1.45478 51.5614 0.443848 48.7903 0.443848C45.7947 0.443848 38.681 1.7531 38.681 8.11948C38.681 14.1094 47.0302 14.1838 47.0302 17.3301C47.0302 20.4764 39.5412 19.9126 37.0697 17.9286L36.1723 23.1346C36.1723 23.1346 38.8677 24.4438 42.9858 24.4438C47.1052 24.4438 53.3196 22.311 53.3196 16.5059C53.3196 10.4775 44.8954 9.91621 44.8954 7.29523C44.896 4.67363 50.7749 5.0104 53.3581 6.43377Z" fill="#2566AF"/>
<path d="M14.903 13.3719L12.8718 2.94502C12.8718 2.94502 12.6262 0.857422 10.0084 0.857422H0.494449L0.382812 1.25001C0.382812 1.25001 4.95557 2.19768 9.34165 5.74834C13.5355 9.14209 14.903 13.3719 14.903 13.3719Z" fill="#E6A540"/>
</svg>
